<mxfile host="65bd71144e">
    <diagram id="LS_hll6JaUgYJsyrIVmX" name="全体">
        <mxGraphModel dx="805" dy="572" grid="1" gridSize="10" guides="1" tooltips="1" connect="1" arrows="1" fold="1" page="1" pageScale="1" pageWidth="827" pageHeight="1169" math="0" shadow="0">
            <root>
                <mxCell id="0"/>
                <mxCell id="1" parent="0"/>
                <mxCell id="2" value="" style="rounded=0;whiteSpace=wrap;html=1;" parent="1" vertex="1">
                    <mxGeometry x="360" y="280" width="160" height="140" as="geometry"/>
                </mxCell>
                <mxCell id="3" value="hub-vnet" style="text;html=1;strokeColor=none;fillColor=none;align=center;verticalAlign=middle;whiteSpace=wrap;rounded=0;" parent="1" vertex="1">
                    <mxGeometry x="460" y="420" width="60" height="20" as="geometry"/>
                </mxCell>
                <mxCell id="4" value="" style="aspect=fixed;html=1;points=[];align=center;image;fontSize=12;image=img/lib/azure2/networking/Virtual_Networks.svg;" parent="1" vertex="1">
                    <mxGeometry x="417.75" y="430" width="33.5" height="20" as="geometry"/>
                </mxCell>
                <mxCell id="5" value="" style="rounded=0;whiteSpace=wrap;html=1;dashed=1;" parent="1" vertex="1">
                    <mxGeometry x="394" width="40" height="40" as="geometry"/>
                </mxCell>
                <mxCell id="6" value="main-subnet" style="text;html=1;strokeColor=none;fillColor=none;align=center;verticalAlign=middle;whiteSpace=wrap;rounded=0;" parent="1" vertex="1">
                    <mxGeometry x="369" y="40" width="90" height="30" as="geometry"/>
                </mxCell>
                <mxCell id="7" value="172.16.0.0/24" style="text;html=1;strokeColor=none;fillColor=none;align=center;verticalAlign=middle;whiteSpace=wrap;rounded=0;" parent="1" vertex="1">
                    <mxGeometry x="369" y="70" width="90" height="30" as="geometry"/>
                </mxCell>
                <mxCell id="8" value="172.16.0.0/20" style="text;html=1;strokeColor=none;fillColor=none;align=center;verticalAlign=middle;whiteSpace=wrap;rounded=0;" parent="1" vertex="1">
                    <mxGeometry x="460" y="440" width="60" height="20" as="geometry"/>
                </mxCell>
                <mxCell id="9" value="" style="aspect=fixed;html=1;points=[];align=center;image;fontSize=12;image=img/lib/azure2/networking/Network_Security_Groups.svg;dashed=1;" parent="1" vertex="1">
                    <mxGeometry x="417.53" width="16.47" height="20" as="geometry"/>
                </mxCell>
                <mxCell id="yguyS48I_euG2ZIpQKNf-9" value="" style="aspect=fixed;html=1;points=[];align=center;image;fontSize=12;image=img/lib/azure2/compute/Virtual_Machine.svg;" vertex="1" parent="1">
                    <mxGeometry x="383" y="295" width="32.34" height="30" as="geometry"/>
                </mxCell>
                <mxCell id="yguyS48I_euG2ZIpQKNf-10" value="AD" style="text;html=1;strokeColor=none;fillColor=none;align=center;verticalAlign=middle;whiteSpace=wrap;rounded=0;" vertex="1" parent="1">
                    <mxGeometry x="370" y="325" width="60" height="20" as="geometry"/>
                </mxCell>
                <mxCell id="yguyS48I_euG2ZIpQKNf-11" value="" style="aspect=fixed;html=1;points=[];align=center;image;fontSize=12;image=img/lib/azure2/networking/Firewalls.svg;" vertex="1" parent="1">
                    <mxGeometry x="463.5" y="295" width="35.5" height="30" as="geometry"/>
                </mxCell>
                <mxCell id="yguyS48I_euG2ZIpQKNf-12" value="Firewall" style="text;html=1;strokeColor=none;fillColor=none;align=center;verticalAlign=middle;whiteSpace=wrap;rounded=0;" vertex="1" parent="1">
                    <mxGeometry x="451.25" y="325" width="60" height="20" as="geometry"/>
                </mxCell>
                <mxCell id="yguyS48I_euG2ZIpQKNf-13" value="" style="rounded=0;whiteSpace=wrap;html=1;" vertex="1" parent="1">
                    <mxGeometry x="600" y="280" width="160" height="140" as="geometry"/>
                </mxCell>
                <mxCell id="yguyS48I_euG2ZIpQKNf-14" value="avd-vnet" style="text;html=1;strokeColor=none;fillColor=none;align=center;verticalAlign=middle;whiteSpace=wrap;rounded=0;" vertex="1" parent="1">
                    <mxGeometry x="700" y="420" width="60" height="20" as="geometry"/>
                </mxCell>
                <mxCell id="yguyS48I_euG2ZIpQKNf-15" value="" style="aspect=fixed;html=1;points=[];align=center;image;fontSize=12;image=img/lib/azure2/networking/Virtual_Networks.svg;" vertex="1" parent="1">
                    <mxGeometry x="657.75" y="430" width="33.5" height="20" as="geometry"/>
                </mxCell>
                <mxCell id="yguyS48I_euG2ZIpQKNf-16" value="172.17.0.0/20" style="text;html=1;strokeColor=none;fillColor=none;align=center;verticalAlign=middle;whiteSpace=wrap;rounded=0;" vertex="1" parent="1">
                    <mxGeometry x="700" y="440" width="60" height="20" as="geometry"/>
                </mxCell>
                <mxCell id="yguyS48I_euG2ZIpQKNf-17" value="" style="aspect=fixed;html=1;points=[];align=center;image;fontSize=12;image=img/lib/azure2/compute/Virtual_Machine.svg;" vertex="1" parent="1">
                    <mxGeometry x="623" y="295" width="32.34" height="30" as="geometry"/>
                </mxCell>
                <mxCell id="yguyS48I_euG2ZIpQKNf-18" value="SessionHost" style="text;html=1;strokeColor=none;fillColor=none;align=center;verticalAlign=middle;whiteSpace=wrap;rounded=0;" vertex="1" parent="1">
                    <mxGeometry x="610" y="325" width="60" height="20" as="geometry"/>
                </mxCell>
                <mxCell id="yguyS48I_euG2ZIpQKNf-21" value="" style="aspect=fixed;html=1;points=[];align=center;image;fontSize=12;image=img/lib/azure2/storage/Storage_Accounts.svg;" vertex="1" parent="1">
                    <mxGeometry x="700" y="295" width="37.5" height="30" as="geometry"/>
                </mxCell>
                <mxCell id="yguyS48I_euG2ZIpQKNf-22" value="Profiles" style="text;html=1;strokeColor=none;fillColor=none;align=center;verticalAlign=middle;whiteSpace=wrap;rounded=0;" vertex="1" parent="1">
                    <mxGeometry x="690" y="325" width="60" height="20" as="geometry"/>
                </mxCell>
                <mxCell id="yguyS48I_euG2ZIpQKNf-23" value="" style="rounded=0;whiteSpace=wrap;html=1;" vertex="1" parent="1">
                    <mxGeometry x="120" y="280" width="160" height="140" as="geometry"/>
                </mxCell>
                <mxCell id="yguyS48I_euG2ZIpQKNf-24" value="storage-vnet" style="text;html=1;strokeColor=none;fillColor=none;align=center;verticalAlign=middle;whiteSpace=wrap;rounded=0;" vertex="1" parent="1">
                    <mxGeometry x="210" y="420" width="70" height="20" as="geometry"/>
                </mxCell>
                <mxCell id="yguyS48I_euG2ZIpQKNf-25" value="" style="aspect=fixed;html=1;points=[];align=center;image;fontSize=12;image=img/lib/azure2/networking/Virtual_Networks.svg;" vertex="1" parent="1">
                    <mxGeometry x="170" y="430" width="33.5" height="20" as="geometry"/>
                </mxCell>
                <mxCell id="yguyS48I_euG2ZIpQKNf-26" value="172.18.0.0/20" style="text;html=1;strokeColor=none;fillColor=none;align=center;verticalAlign=middle;whiteSpace=wrap;rounded=0;" vertex="1" parent="1">
                    <mxGeometry x="210" y="440" width="70" height="20" as="geometry"/>
                </mxCell>
                <mxCell id="yguyS48I_euG2ZIpQKNf-27" value="" style="aspect=fixed;html=1;points=[];align=center;image;fontSize=12;image=img/lib/azure2/compute/Virtual_Machine.svg;" vertex="1" parent="1">
                    <mxGeometry x="143" y="295" width="32.34" height="30" as="geometry"/>
                </mxCell>
                <mxCell id="yguyS48I_euG2ZIpQKNf-28" value="VM" style="text;html=1;strokeColor=none;fillColor=none;align=center;verticalAlign=middle;whiteSpace=wrap;rounded=0;" vertex="1" parent="1">
                    <mxGeometry x="130" y="325" width="60" height="20" as="geometry"/>
                </mxCell>
                <mxCell id="yguyS48I_euG2ZIpQKNf-31" value="" style="shape=cylinder3;whiteSpace=wrap;html=1;boundedLbl=1;backgroundOutline=1;size=2.199999999999932;rotation=-90;" vertex="1" parent="1">
                    <mxGeometry x="315" y="260" width="10" height="90" as="geometry"/>
                </mxCell>
                <mxCell id="yguyS48I_euG2ZIpQKNf-32" value="" style="shape=cylinder3;whiteSpace=wrap;html=1;boundedLbl=1;backgroundOutline=1;size=2.199999999999932;rotation=-90;" vertex="1" parent="1">
                    <mxGeometry x="556" y="260" width="10" height="90" as="geometry"/>
                </mxCell>
                <mxCell id="yguyS48I_euG2ZIpQKNf-33" value="" style="aspect=fixed;html=1;points=[];align=center;image;fontSize=12;image=img/lib/azure2/storage/Storage_Accounts.svg;" vertex="1" parent="1">
                    <mxGeometry x="210" y="295" width="37.5" height="30" as="geometry"/>
                </mxCell>
                <mxCell id="yguyS48I_euG2ZIpQKNf-34" value="File Share" style="text;html=1;strokeColor=none;fillColor=none;align=center;verticalAlign=middle;whiteSpace=wrap;rounded=0;" vertex="1" parent="1">
                    <mxGeometry x="198.75" y="325" width="60" height="20" as="geometry"/>
                </mxCell>
                <mxCell id="yguyS48I_euG2ZIpQKNf-36" value="" style="aspect=fixed;html=1;points=[];align=center;image;fontSize=12;image=img/lib/azure2/networking/Virtual_Network_Gateways.svg;" vertex="1" parent="1">
                    <mxGeometry x="387.85999999999996" y="360" width="22.61" height="30" as="geometry"/>
                </mxCell>
                <mxCell id="yguyS48I_euG2ZIpQKNf-37" value="VPN Endpoint" style="text;html=1;strokeColor=none;fillColor=none;align=center;verticalAlign=middle;whiteSpace=wrap;rounded=0;" vertex="1" parent="1">
                    <mxGeometry x="360" y="390" width="80" height="20" as="geometry"/>
                </mxCell>
                <mxCell id="yguyS48I_euG2ZIpQKNf-38" value="" style="aspect=fixed;html=1;points=[];align=center;image;fontSize=12;image=img/lib/azure2/general/Resource_Groups.svg;" vertex="1" parent="1">
                    <mxGeometry x="100" y="200" width="21.25" height="20" as="geometry"/>
                </mxCell>
                <mxCell id="yguyS48I_euG2ZIpQKNf-39" value="&lt;p&gt;at-storage-demo-rg&lt;/p&gt;" style="text;html=1;strokeColor=none;fillColor=none;align=left;verticalAlign=middle;rounded=0;" vertex="1" parent="1">
                    <mxGeometry x="121.25" y="200" width="78.75" height="20" as="geometry"/>
                </mxCell>
                <mxCell id="yguyS48I_euG2ZIpQKNf-40" value="" style="aspect=fixed;html=1;points=[];align=center;image;fontSize=12;image=img/lib/azure2/general/Resource_Groups.svg;" vertex="1" parent="1">
                    <mxGeometry x="360" y="200" width="21.25" height="20" as="geometry"/>
                </mxCell>
                <mxCell id="yguyS48I_euG2ZIpQKNf-41" value="&lt;p&gt;at-hub-demo-rg&lt;/p&gt;" style="text;html=1;strokeColor=none;fillColor=none;align=left;verticalAlign=middle;rounded=0;" vertex="1" parent="1">
                    <mxGeometry x="381.25" y="200" width="78.75" height="20" as="geometry"/>
                </mxCell>
                <mxCell id="yguyS48I_euG2ZIpQKNf-42" value="" style="aspect=fixed;html=1;points=[];align=center;image;fontSize=12;image=img/lib/azure2/general/Resource_Groups.svg;" vertex="1" parent="1">
                    <mxGeometry x="600" y="200" width="21.25" height="20" as="geometry"/>
                </mxCell>
                <mxCell id="yguyS48I_euG2ZIpQKNf-43" value="&lt;p&gt;at-avd-demo-rg&lt;/p&gt;" style="text;html=1;strokeColor=none;fillColor=none;align=left;verticalAlign=middle;rounded=0;" vertex="1" parent="1">
                    <mxGeometry x="621.25" y="200" width="78.75" height="20" as="geometry"/>
                </mxCell>
            </root>
        </mxGraphModel>
    </diagram>
    <diagram id="Xb3D5AfRGrg48MtRlKaS" name="ページ2">
        <mxGraphModel grid="1" gridSize="10" guides="1" tooltips="1" connect="1" arrows="1" page="1" fold="1" pageScale="1" pageWidth="827" pageHeight="1169" math="0" shadow="0">
            <root>
                <mxCell id="Po_qi_Rk-oldUOWSlYfZ-0"/>
                <mxCell id="Po_qi_Rk-oldUOWSlYfZ-1" parent="Po_qi_Rk-oldUOWSlYfZ-0"/>
                <mxCell id="Po_qi_Rk-oldUOWSlYfZ-2" value="" style="rounded=0;whiteSpace=wrap;html=1;" parent="Po_qi_Rk-oldUOWSlYfZ-1" vertex="1">
                    <mxGeometry x="240" y="60" width="280" height="350" as="geometry"/>
                </mxCell>
                <mxCell id="Po_qi_Rk-oldUOWSlYfZ-3" value="hub-vnet" style="text;html=1;strokeColor=none;fillColor=none;align=center;verticalAlign=middle;whiteSpace=wrap;rounded=0;" parent="Po_qi_Rk-oldUOWSlYfZ-1" vertex="1">
                    <mxGeometry x="460" y="420" width="60" height="30" as="geometry"/>
                </mxCell>
                <mxCell id="Po_qi_Rk-oldUOWSlYfZ-4" value="" style="aspect=fixed;html=1;points=[];align=center;image;fontSize=12;image=img/lib/azure2/networking/Virtual_Networks.svg;" parent="Po_qi_Rk-oldUOWSlYfZ-1" vertex="1">
                    <mxGeometry x="430" y="425" width="33.5" height="20" as="geometry"/>
                </mxCell>
                <mxCell id="Po_qi_Rk-oldUOWSlYfZ-5" value="" style="rounded=0;whiteSpace=wrap;html=1;dashed=1;" parent="Po_qi_Rk-oldUOWSlYfZ-1" vertex="1">
                    <mxGeometry x="360" y="190" width="40" height="40" as="geometry"/>
                </mxCell>
                <mxCell id="Po_qi_Rk-oldUOWSlYfZ-6" value="main-subnet" style="text;html=1;strokeColor=none;fillColor=none;align=center;verticalAlign=middle;whiteSpace=wrap;rounded=0;" parent="Po_qi_Rk-oldUOWSlYfZ-1" vertex="1">
                    <mxGeometry x="335" y="230" width="90" height="30" as="geometry"/>
                </mxCell>
                <mxCell id="Po_qi_Rk-oldUOWSlYfZ-7" value="172.16.0.0/24" style="text;html=1;strokeColor=none;fillColor=none;align=center;verticalAlign=middle;whiteSpace=wrap;rounded=0;" parent="Po_qi_Rk-oldUOWSlYfZ-1" vertex="1">
                    <mxGeometry x="335" y="260" width="90" height="30" as="geometry"/>
                </mxCell>
                <mxCell id="Po_qi_Rk-oldUOWSlYfZ-8" value="172.16.0.0/20" style="text;html=1;strokeColor=none;fillColor=none;align=center;verticalAlign=middle;whiteSpace=wrap;rounded=0;" parent="Po_qi_Rk-oldUOWSlYfZ-1" vertex="1">
                    <mxGeometry x="460" y="445" width="60" height="30" as="geometry"/>
                </mxCell>
                <mxCell id="Po_qi_Rk-oldUOWSlYfZ-9" value="" style="aspect=fixed;html=1;points=[];align=center;image;fontSize=12;image=img/lib/azure2/networking/Network_Security_Groups.svg;dashed=1;" parent="Po_qi_Rk-oldUOWSlYfZ-1" vertex="1">
                    <mxGeometry x="383.53" y="190" width="16.47" height="20" as="geometry"/>
                </mxCell>
            </root>
        </mxGraphModel>
    </diagram>
</mxfile>